<svg id="Object" xmlns="http://www.w3.org/2000/svg" viewBox="0 0 1678.47 960.71"><defs><style>.cls-1{fill:#010d27;}</style></defs><path class="cls-1" d="M514.15,1065.53c-.24-3.89.24-19.2,1.46-21.39s4.37-4.86,5.35-5.1,13.61-10.21,14.34-10.45,4.62-11.43,5.83-14.59a28,28,0,0,0,2.19-9.23c0-2.68,1-12.4,1.46-13.86s2.43-1,2.43-1l2.91-2s4.62-11.42,2.43-17.5c0,0,17.51-6.8,19.21-7.29s7-1.7,7-1.7a76.24,76.24,0,0,0,.24-14.58c-.73-6.32-4.13-93.34-6.81-109.87s-10.69-62.47-13.85-73.16-20.18-24.55-25.52-30.63-10.21-7-12.16-6.8-5.83-1.71-7.05-3.89-6.32-5.11-6.32-5.11,1-12.15,1-13.12-1.95-3.16-1.95-3.16,5.84-15.8,7.29-18,8.27-11.91,8.27-11.91,0,2.92,1.7,2.92,9-12.16,9-15.56a20.07,20.07,0,0,0-1.45-6.81s3.88-13.12,4.37-15.55,1.46-7.29.49-9.72-3.41-5.11-3.89-7.54a11.86,11.86,0,0,0-1.7-4.13s-5.84-6.32-7.78-7a21.11,21.11,0,0,1-6.32-4.62c-1-1.21-6.32-1.46-7.05-1.7s-5.1-2.92-6.81-2.67-4.13.48-5.34.73-4.87-.25-5.84,0a13.36,13.36,0,0,0-4.62,2.18c-1,1-6.07-.73-7.29,1.22s-2.19,2.19-3.89,3.65-3.16,0-4.61,1.7A39.54,39.54,0,0,0,465.78,619c-.49,2.43-1.7,2.19-1.46,4.62a8.86,8.86,0,0,1-1,5.59c-1,2.19-1.7,0-1,2.19a11.36,11.36,0,0,1,.24,4.86,9,9,0,0,0-4.86,3.16c-2.19,2.67-1,5.35-1.22,6.8s-.72,6.08-.24,8a5.07,5.07,0,0,0,2.68,3.4c.72.24,3.88-1,3.88-1s0,4.37.25,6.32-1,7-1.46,9.48-2.43,9.72-2.43,9.72l-2.68,1.21s-8.5,6.81-9.23,7.54a7.37,7.37,0,0,1-1.7,1.21s-23.34,0-28.2-1.7-18.23-2.91-20.66-1.94-7.53-.25-12.88,3.64S373.42,698,368.8,708.71s-4.62,8.75-4.62,8.75-9.72,18.72-12.88,25-18,37.19-20.91,41.08-8.5,18.47-10,20.17-4.62,14.58-5.84,16.29S310,839.24,310,842.15s1.7,9.48,1.7,9.48,4.62,4.62,4.13,8.51,1.94,16.77,2.92,23.09,1.46,9,1,11.18.49,12.89,1.46,16.29,4.37,11.67,5.34,14.34a5.65,5.65,0,0,0,3.16,3.4l-2.91,9.24s1.46,5.59,2.19,8.51,1.7,46.42,1.45,50.07-1.7,25.52-1.7,30.14c0,4.24-5.33,75.53-8.27,95.6H507.66C510.15,1102.07,514.33,1068.36,514.15,1065.53Z" transform="translate(-18.19 -161.29)"/><path class="cls-1" d="M687.89,533.87a12.76,12.76,0,0,0-1.5-1.72s-5.92-.49-7.43-.92l-.1,1.67a5.23,5.23,0,0,1,1.39.86c.49.49.65,1,1,1.13a6.5,6.5,0,0,1,2,1c.43.49,1,.54,1.5.92s3.23.64,4.25.75,2.69.32,2.69.32S688.48,534.73,687.89,533.87Z" transform="translate(-18.19 -161.29)"/><path class="cls-1" d="M826.33,1086.44c-1.33-15.15-4-49.48-3.34-54.61s2-7.8,1.56-12-2.23-41.91-2-45.25S822.1,963,822.1,963s7.8,11.37,11.14,14.71,6.24,1.11,6.91,1.34-2.45,6.24,0,11.59,4.91,10.92,5.35,13.15,0,10,.23,12.26l-3.12,3.35s-5.13-1.12-6,1.11a3.61,3.61,0,0,0,.67,3.79s-2.46,2.45-1.12,4a3.14,3.14,0,0,0,2.68,1.34s.22,2.45,2.45,2.45a15.36,15.36,0,0,0,3.79-.44,34.74,34.74,0,0,0,5.12-.45c2.68-.45,5.8-2.68,7.36-3.12a26.52,26.52,0,0,0,4.46-2.23l1.56-2.9a10.46,10.46,0,0,0,2.23-3.12c1.34-2.45,1.11-10.25,2-11.59a10.59,10.59,0,0,0,1.33-4.9c.23-2-5.35-10.71-6.46-13.38s-5.35-14-5.35-14,6.91,2.23,8.92.89,1.56-5.58,1.56-5.58l4.68-.22s6-5.57,5.35-5.79-3.79-15.83-3.35-16.95S864,911.9,862.89,908.55s0-44.36-1.34-55.95-9.36-41.24-9.8-46.14-1.79-23.41-3.13-26.75-10-15.38-13.59-16.28a79.43,79.43,0,0,1-9.59-3.56s-8-6.47-9.58-6.47a2.1,2.1,0,0,1-2-1.33l-.22-1.12-5.58-3.12a13.47,13.47,0,0,0,2-5.8,13,13,0,0,0-.22-4.45,21.28,21.28,0,0,0,2.67-4.91l.45-1.78s6.91-4.24,10-10.92,4.9-14.05,3.79-19.62-.89-29.2-3.57-35.22-8.69-15.61-12.93-19-8.69-7.36-10.25-8.25a44.94,44.94,0,0,0-6.24-2.23c-1.45-.2-9-2.13-13.7-1.84s-7.57,3.79-10.19,6.41-6.11,4.07-8.44,6.4a66.06,66.06,0,0,0-6.7,8.45c-2,2.91-1.74,4.66-2.91,7.57s-.29,9.32-2,10.77-1.74,2.33-2.62,4.95-.29,3.49-.29,6.41,1.46,9.31,1.75,11.93,1.45,3.5,1.75,5.54,2.91,6.69,4.07,9.6.59,3.5.59,5.25v12.22l-6.12,5.25a18.52,18.52,0,0,1-.87-5c0-2.33-2.91-10.78-3.5-13.4s-1.74-3.78-1.74-7,.87-7.57-.3-11.64-1.45-4.66-1.16-8.45-.58-12.23-.58-12.23l4.37-5.82s-.3-4.37-.3-7.28-4.65-9.61-6.69-11.64-7-7.87-5.53-10.49,3.2-6.69,1.74-13.68-12.81-5.53-16.89-4.95-4.65-12.23-4.65-12.23a144.91,144.91,0,0,1-3.71-23.25l-.51-3.43s-4.89-30.73-5.56-35-2.23-10.48-3.34-12.48-6-5.8-7.58-6.25-7.36-4-7.81-5.12-4.68-4-4.68-4,3.35-8.24.67-10c-1.89-1.26-4.68,2.9-6.46,7.81s-2,8.24-1.79,10.25-.44,6,.23,9.81.89,6.91,2.67,8.25,7.58,6,9.59,7.8a18.07,18.07,0,0,1,3.34,4.23s1.34,18.95,2.68,30.1,2.67,32.32,4.68,39.45,2.45,8.7,2.45,10.26-2.68,3.12-3.57,5.13S662.49,692.55,658,703.47s-15.61,28.76-16.5,30.76-20.51,8.7-24.07,11.15-9.81,24.3-11.82,25.63,21.18,20.51,27.65,25.42,14.71,12.7,18.5,14.26,2.9,2.46,8.25,4.24,9.14,3.34,10,5.79,3.56,8.92,5.35,11.6-.23,19.84-.45,27.19-3.12,27.87-3.34,31.66-3.79,33.88-4.68,38.56S661.6,968.3,660.48,975s-7.13,37.9-6.69,45.93-2.23,31.43-1.56,38.56-3.79,26.3-6.68,31.43-9.14,25.19-9.14,25.19,9.79,3.66,17.27,5.91H827.56C827.33,1108.12,827,1093.4,826.33,1086.44ZM689,537.58c-1-.11-3.71-.38-4.25-.75s-1.07-.43-1.5-.92a6.5,6.5,0,0,0-2-1c-.38-.16-.54-.64-1-1.13a5.23,5.23,0,0,0-1.39-.86l.1-1.67c1.51.43,7.43.92,7.43.92a12.76,12.76,0,0,1,1.5,1.72c.59.86,3.82,4,3.82,4S690,537.69,689,537.58Zm108.44,204.9a20.68,20.68,0,0,0-.6,2.56,6.22,6.22,0,0,0-1.83-1,9,9,0,0,0-2.79-.24s0-1.34-.25-4.37,1.73-6.2,1.71-5.84c-.13,1.7,1.45,1.22,2.43,1.58s.6,1,.73,1.95.48,1.7.72,3.4S797.83,741.39,797.46,742.48Z" transform="translate(-18.19 -161.29)"/><path class="cls-1" d="M1026.16,1120.16c0-2.92-.33-5.51,1.94-6.48s5.51-3.24,6.16-7.13,1.62-13.94,1.62-13.94l23.33-9.4s-32.4-65.46-34.35-71-5.83-32.09-6.48-38.89-4.54-52.18-5.19-60.61-.32-46.34-1.62-60-2.59-21.07-3.24-26.9-2.27-11.34-1.94-13.29,4.21-2.27,6.48,1.3,6.48,2.91,9.72,2.27,2.92-2.27,5.84-4.54,4.21,2.59,7.13-5.83,1.94-13.94,6.15-18.48,12-10,14.59-15.23-3.89-38.89-10.37-51.53-19.45-57-20.1-66.44-5.51-25.6-4.21-34.67,2.59-13.29,1-20.75-1.29-10-3.56-12.64a14.28,14.28,0,0,0-3.57-3.24s-2.91,5.19-4.53,4.87-1-32.09-2.27-40.52-1.62-45.69-3.57-49.58-4.21-11.67-2.92-17.83,3.57-12.31,3.89-15.23,5.19-11,6.81-13.29a77,77,0,0,0,4.21-7.45s-4.21-2.92-6.8-.32l5.18-10.37s-1.29-3.89-7.13-1-6.48,6.81-8.1,10.7S991.8,458.7,990.51,461s-3.24,1.94-5.51,6.16a108.55,108.55,0,0,0-4.54,10s-3.89-11.67-9.07-10.37-3.89,1.95-1.62,5.83,5.51,11,6.15,13.94a32.55,32.55,0,0,0,5.19,10.7c2.27,2.91,5.18,2.26,5.83,8.1s-.32,36-.65,47-2.26,30.14-3.24,35.33-1.29,13-2.27,14.9-5.18,6.16-6.48,11-7.45,13-6.8,24,1.62,9.73,1.62,9.73-4.22,7.45-3.24,12.31,2.27,4.54,1.62,6.16-5.19,5.51-6.48,8.75a21.21,21.21,0,0,1-1.19,2.43,25.83,25.83,0,0,0-2.06-8.26c-4.53-9.73-14.9-30.79-20.41-33.06s-24.31-3.89-26.25-2.59-3.89,5.18-5.84,5.18a45.18,45.18,0,0,1-4.53-.32l-1.63,3.56a22,22,0,0,0-5.18,2.27l-5.83,1-.33,4.54s-9.4,6.48-12.31,16.85-3.24,26.9-9.4,34.68a31.33,31.33,0,0,0,6.06-9.4c-2.14,7.48-6.24,21.6-8.33,27.87l7.13-19.12s1,13.94-3.24,21.72S846,751.35,841.43,757.18s-10.37,6.81-15.23,9.08l6.48-1.3s-12.32,11-15.88,15.88c0,0,11.34-10.69,16.2-13,0,0-16.85,22.36-17.82,26.57,0,0,14.58-19.77,17.82-21.06,0,0-17.82,59.3-19.44,70s-13,67.73-13.62,72.59-3.56,13.29,0,13.29,9.73,3.89,9.73,3.89l-1.3,7.13a20.32,20.32,0,0,0,11.34,4.21s-.32,27.88-1,31.76-.32,9.4.65,14.59,2.59,24.31,3.24,26.9a8.28,8.28,0,0,0,2.92,4.21s6.8,12.64,8.75,14.91,11.67,9.4,13.29,10.37c.31.19.81.54,1.41,1-3.17,17.55-6.44,37.75-6.6,47.31a186.73,186.73,0,0,0,1.86,26.47h181.26A3.58,3.58,0,0,0,1026.16,1120.16ZM851.09,1036.9c-.2-.93-1-3.87-3.18-3.6,0,0-4.54-8.1-4.86-10s-3.24-11.35-3.24-11.35,0-2.26,1.94-1.94,1.62,5.51,3.24,7.78,3.18,8.45,8.41,7.2C852.76,1028.23,852,1032.33,851.09,1036.9ZM963.28,692c-.64,1.62-3.24-.32-3.24.65s-1.29,4.86-1.29,3.89a119.73,119.73,0,0,0,1.28-12C961.59,687.34,963.76,690.84,963.28,692Z" transform="translate(-18.19 -161.29)"/><path class="cls-1" d="M242.41,1049.49c.49-10.21,7.94-67.73,7.94-72.27s6.31-6.81,6.31-6.81l10.54-3.56,3,10.32s-3.38,14.87,4.05,19.6a120.85,120.85,0,0,0,11.49,6.76c5.19,2.6,28.68-.35,19.61-24.33-4.87-12.85-8-17.15-9.9-18.37-1.37.13-2.3.18-2.3.18s.67-1.24,2.3-.18c3.69-.36,10.72-1.34,12.61-3.71,2.59-3.24,10.37-7.13,10.37-7.13l-.65-11s7.78-1.3,11-3.24S288.59,824.9,284.7,812.58s-3.24-33.7-5.83-43.43,0-23.33-3.89-27.87-7.78-16.85-13.61-18.79-13.61-8.43-16.2-9.73-10.37-9.07-9.73-11-1.94-2.59-1.94-2.59L238,683.6l5.83-6.49s13-8.42,11-16.2l-3.24-3.24s1.29-7.13,3.24-11,.65-14.26.65-14.26a5.5,5.5,0,0,0-1.74-2.09c-1.32-1-2-3.32-2.69-3.81s-1.53-1.16-1.49-1.37.54-1.82.54-1.82-2.07,2.73-2.57,2.77,1-1.94,1-2.11-.29-.87-.29-1.12,1.28-3.1.78-4.51c0,0-1.53,3.77-1.94,3.89s-1-.66-1-.66,1.37-3.48,1-4.81c0,0-2.16,2.94-2.61,2.78s2.07-5.55-.91-7.41c0,0,.45,6.41-1,6.33s-3.18-4.1-3.39-4.76.12-2.15-.75-3.4a11.83,11.83,0,0,0-3.23-3.06s3.52,4,1.37,3.93c0,0-.95-2.56-2.28-3.23s-2.65-.78-2.94-1.36-1.24-1.08-.83-2.53a5,5,0,0,1,1.87-2.4,4,4,0,0,0-3.15,2.23c-.75,2,0-.2,0-.2l1-2.11a8.07,8.07,0,0,0-2.77,2,1.63,1.63,0,0,1-1.7.79,4,4,0,0,1,2.4-2.32s-.91-.5-4.72,1.41c0,0-.08-1.26,1.85-1.79l.14,0h0l-.08,0a6.91,6.91,0,0,0-5.09,1.77s.42-1.91,3.28-2.24-.21-.08-.21-.08-6.79,1.12-8.86,4.51c0,0-2.2,3.07-2.2,3.19s1.41-5.8,5.59-7c0,0-5.92.46-7.91,5l1.16-3.6s-3.23,4-3.6,7.45c0,0-1-3.35.7-5.46,0,0-5.3,3.89-4.72,8.4,0,0-1-3.44.42-6-1,1.55-3.65,6-3.81,8.72l-.34,1s-1-4.84.67-7.08c0,0-5,6-4.85,9.28l-.37-4.93s-1.81,6-.84,8.63c0,0-4.38,2-4.13,5.59s-2,8-1.71,13.13a36.78,36.78,0,0,1-.73,9.24s-1.45-1.46-2.91,1.7-1,9-1,10.69,2.43,5.84,3.88,6.08,1.95,1.7,2.68,4.37a65.76,65.76,0,0,0,2.67,7l.25,8L187,699.72l-16.77-2.92s-20.66-15.55-21.15-16.53a20.65,20.65,0,0,1-1-2.67s-4.86-3.4-5.35-4.13-22.6-35-29.16-38.41-7.3-11.42-9.24-14.58S95.11,592,94.14,588.88s0-10,0-14.58-1.94-8.27-1.7-13.13,2.43-24.06,2.43-24.06a66,66,0,0,1-6.56-1.7s.73-8,2.43-10,8.51-8.75,9.48-10.94,3.16-12.39,3.16-13.85a12,12,0,0,1,.73-3.4s9.48-1.71,10.45-1.95c0,0,2.19-4.13-6.08-2.67l-3.64-1.7s12.15-.73,14.82-1.22,3.41-3.4,0-3.65-10.69.25-10.69.25-1-3.4-3.16-3.16-5.84,2.67-8.27,2.67h-6.8s17.5-19.2,17.74-23.09c0,0-1.21-4.62-5.59.73s-6.8,7.78-6.8,7.78,3.64-13.37,1.21-12.88S88.06,475.13,86.61,478s-4.38,6.32-5.84,6.81-4.13,1-4.86,3.89A37.74,37.74,0,0,0,74.7,496c-.25,2.92-.49,10.94-1.46,15.07s-1,8-2.68,11.67-3.88,6.8-3.64,8.26-2.19-.48-2.19-.48S63.52,541,63.27,542.94s-2.67,9.24-1.7,15.56-2.19,13.12-2.19,18.71,3.41,31.36,3.16,39.62-2.43,19.45-3.4,25.77-15.07,81.18-15.8,91.63-4.13,14.59-2.92,17.26-7.29,17.75-6.56,21.88-20.66,32.08-14.58,33.3,32.57-2.19,41.8-2.43,19.94-7.3,25.77-9.48,15.07-7.29,18-6.57,7.53,9.48,6.8,13.13-6.32,21.39-9,27.95-8.27,28-10.21,36.71-1.94,14.82-3.65,19.44S77.61,917.26,75.67,926.5s-8,44.24-9.48,56.39S64,1004,61.57,1009.63s-7,33.78-10,44-2.92,17.75-5.84,23.34-7.53,17.5-10.45,22.11S30,1112.2,30,1112.2s4.38,4.62,5.35,7.78a12.72,12.72,0,0,0,.85,2H238C239.94,1096.35,242.08,1056.45,242.41,1049.49Z" transform="translate(-18.19 -161.29)"/><path class="cls-1" d="M362,961s.92,0,2.3-.18C362.63,959.77,362,961,362,961Z" transform="translate(-18.19 -161.29)"/><path class="cls-1" d="M1303.13,1121.92c1.46-7.29,1.94-12.64,1.46-17s-.49-10.7-.49-13.61,8.27-59.31,8.27-70,3.89-24.3,3.89-24.3l6.32,4.37,7.29-1.46a22.33,22.33,0,0,0-3.41,5.35c-1.94,3.89-1.94,14.59-1.45,18s-2,15.55-2,19.44,4.38,4.86,4.38,4.86,6.8-11.18,6.32-16,2.91-3.4,2.43-1.94,1.94,5.83,1.94,10.21,1.95,4.37-1.46,7.29-2.91,5.83-5.34,5.35-4.87-2-6.81-.49-4.86-1.46-4.86,2.43-2.92,2.43,0,3.89,5.35,3.89,7.78,2.92,9.23-1,11.66-2.92,5.84-2.92,7.3-4.86,7.29-13.61,7.77-17-.48-9.72-1-12.15-3.4-12.15-3.4-13.61,2.92-3.89,2.92-5.35a51.73,51.73,0,0,1,1.45-6.8l17-2.44s23.82-2.91,27.71-4.86-1.46-29.16-2.43-35l4.37-2.43s-7.78-51.53-8.75-59.79-18.47-57.37-20.42-68.55-7.29-32.08-10.2-39.37-10.21-15.56-15.07-23.34-19-10.69-23.34-14.1-10.21-3.88-11.18-5.83-2.92-5.35-2.43-8.26,0-10.7,0-10.7l-7.29-3.4s1.46-12.64,2.43-15.07,6.8-11.18,6.8-16.53c0,0,4.38-1.94,5.35-5.35s1-10.69,1-13.61-2.91-6.32-2.91-6.32a86.29,86.29,0,0,0,1.46-9.72c0-2.43.48-5.35-.49-8.75s-1.94-8.27-3.89-9.72-7.29-8.27-7.29-8.27-5.83-7.29-12.15-8.26c0,0-10.21-1.46-12.64-1s3.4-2.43,3.4-2.43-4.86.48-7.78,2.43-1.94-1.46-1.94-1.46a15.51,15.51,0,0,0-11.67,4.86,68.68,68.68,0,0,1-9.24,8.75c-3.4,2.92-1.46,4.86-4.86,9.24s-5.83,3.4-5.83,8.26,1.94,10.69,2.91,13.13a8.8,8.8,0,0,1,0,5.34s-3.4,5.35-2.43,10.21,4.38,9.72,5.35,11.67,4.86,1,4.86,1,3.41,7.29,3.41,10.7,1,12.63,1,12.63-2,4.38-3.89,6.32-8.27,9.24-8.27,5.35,8.76-8.26,7.3-10.21-11.67-15.55-18-23.33-23.33-24.31-26.74-23.82-5.34,2.43-7.78-.49-23.82-64.17-25.76-69.51-14.1-26.25-15.56-30.63a42.42,42.42,0,0,1-1.94-8.75c-.49-2.92-3.4-16.53-3.4-19s3.89-16.53,4.37-19,1.46-7.78,0-10.69-3.89-8.27-4.86-10.21,3.4-17.5,3.4-17.5l23.82-2s8.75-37.92,5.35-55.42c0,0-9.24-13.61-9.72-15.55l-.49-1.95s-4.86,1.95-6.8,1.95-12.16-1.46-12.16-1.46l-20.9-18.47s-2.9,9.33-6.45,22.25a24.3,24.3,0,0,0-8.62-7.83c-15.82-8.19-18-13.5-17.59-19.81a5.37,5.37,0,0,0,.7,0,6.68,6.68,0,0,0,3-12.63,62.29,62.29,0,0,0,.08-7.38c0-.85,1-5.7,5-10.67s2.54-12.48,2.54-12.48c-.24,1.7,0,8.36-3,8.73s-5.45,6.66-5.45,6.66c0-1.57-.12-2.42,3.15-6.91a11.92,11.92,0,0,0,2.42-8.72,14.85,14.85,0,0,1-4,5.69,13.09,13.09,0,0,0-3,3.76,27.89,27.89,0,0,1,5.09-13.09,49.17,49.17,0,0,1-4.12,3.88c-1.94,1.7-2.91,7-2.91,7l-.12-3c1.94-6.79-.6-9-.6-9,.12,1.58,1.69,3.88-.73,7.15s-2.3,11.15-2.3,11.15a14.53,14.53,0,0,1-1-8.12c-1.21,2.18-.85,7.64.48,9.7s1.7,7.51,1.46,12.36a13.44,13.44,0,0,0,.31,3.65,6.68,6.68,0,0,0,1.49,11.85c-.18,4.18,1.23,11.09,10.86,16.27,7.29,3.93,12.32,7.11,16.31,13.8-5.57,20.44-12.43,48.65-12.43,63.66l20.08,18.71-.6,1.8a3.42,3.42,0,0,0-4,3c-.6,3.62-2.61,3-2,7.43s-1,14.84.81,19.86,4.21,11.64,4.81,14.64,1.41,23.28,1.41,23.28l-1.81,2s-.2,13.24,1.2,19.26,4.22,43.94,5.82,51,7.42,65.4,10.23,74.63-.8,50.76.61,62.4-4,19.86-.81,26.68,3.61,9.43,4.82,14.85,4.81,15.84,6.42,17.85,6.82,8.23,9,8a4.86,4.86,0,0,0,3.21-1.41,119,119,0,0,0-2.21,14.85c-.8,8.82-7,33.7-8,36.31s-5,18.46-5.61,22.07a54.75,54.75,0,0,1-2.41,9.63c-.6,1.2-8.43,26.08-10.43,30.89s-9.83,52.57-9.63,67.61c0,0-24.77,51.14-27.69,84.68a120.4,120.4,0,0,0-.43,16.12h194.86S1303.12,1122,1303.13,1121.92Z" transform="translate(-18.19 -161.29)"/><path class="cls-1" d="M639.26,326.78c-2.57-2.28-4-3.6-4-3.6A19.46,19.46,0,0,0,639.26,326.78Z" transform="translate(-18.19 -161.29)"/><path class="cls-1" d="M756.55,452.85l-.11-.05Z" transform="translate(-18.19 -161.29)"/><path class="cls-1" d="M754.42,447c.36-5.15-3.08-7.53-4.86-8.71S738.72,430.21,738,429c-.53-.92-5.43-3.08-8.07-4.78a7.38,7.38,0,0,0,.65-3.05,7.57,7.57,0,0,0-5.37-7.25,17.31,17.31,0,0,0-.12-2.34c-1.09-9.58-9.16-22.42-18-28.62-9.3-6.54-8-12-7.35-13.51q3.72,2.06,7.58,4c41.84,21.45,64,27.42,64,27.42L738.3,384.7l-1.76-11.25,17.23-32-17.23-11.25-7,6,.35-9.14s-17.22-15.47-35.15-12.31c0,0-17.58,27.42-16.53,38,0,0-28.18-17.65-38.92-25.93a352.68,352.68,0,0,0,58,41.21c-.77,1.7-2.5,7.94,8.83,15.91,8.93,6.28,16.06,20.56,17,28.32a6.73,6.73,0,0,1,0,1.34h0a7.57,7.57,0,0,0-4.33,13.8,14.47,14.47,0,0,0,2.72,5.7c4.45,5.68,12.27,12.62,16.6,17.59s1.42,8.71.11,11.32a8.66,8.66,0,0,0,2.61-4.56,16.74,16.74,0,0,0-.53-7.47,11.83,11.83,0,0,1,2.37,9.72c-1.19,5.75.06,3.73,1.42,6.16,0,0-1.6-3.08-.71-5.27a17.41,17.41,0,0,0,.12-9.72c-.95-2.55-2.25-6.22-2.31-6.4s8.77,4.62,9.6,10.43,2.6,6.46,3.55,7.17c0,0-3.55-8.24-3.49-11.91s-.72-5.57-2.91-7.76c0,0,5,.89,5.57,5.75.56,4.59,2.34,4.47,3,4.69C756,452.6,754.11,451.48,754.42,447Z" transform="translate(-18.19 -161.29)"/><path class="cls-1" d="M219.25,319.58l-7.45-4.22-4.87-42.77s-52.5,50.55-58.66,55.74c0,0,2.6,33.38,8.75,52.5l14.7-16.43a42.78,42.78,0,0,0,4.75,8.63c5.14,7,4.73,15.15,3.63,20.45h-.23a5.88,5.88,0,0,0-6,5.75,5.53,5.53,0,0,0,.66,2.62,14.06,14.06,0,0,0-1.47,6.89c0,6.54-1,10.87-3.73,14.14s-1.62,8.4-1.62,7c0-.1-.49-3.79,1.78-5.69a25.32,25.32,0,0,0,0,7.59c.65,3.91.16,5.07-1.29,6.44a4.65,4.65,0,0,0,2.59-5.38,6.64,6.64,0,0,1,1.29-6.12,19.28,19.28,0,0,0,1.46,9c1.95,4,2.92,6.12,2.92,6.12s-1.62-7.18-2.11-9.71a33.6,33.6,0,0,1-.48-5.38s3.56,3.8,4.05,8,.81,5.38,3.24,6.86c0,0-2.11-5.38-1.62-7.81s-1.46-5.59-1.62-6.33,3.89,1.58,4.86,6.65l2.11,4.85a64.32,64.32,0,0,1-1.62-7.81,11.15,11.15,0,0,0-1.95-5c-.49-.84-.32-3.9,0-6s2.92-6.86,2.76-8.76c-.14-1.55-.16-5.56-.25-7.84a5.64,5.64,0,0,0,2-4.31,5.73,5.73,0,0,0-3.36-5.16c1-5.77-.13-14.42-9.28-29.9-.18-.3-.33-.6-.5-.9l3.42-3.82,18.47,9.07s9.07-1.94,14.58-8.1,12.32-18.15,12.64-25.28S219.25,319.58,219.25,319.58Z" transform="translate(-18.19 -161.29)"/><path class="cls-1" d="M487.76,451.35l1.62-6.48s-17.18-13.93-30.79-16.53a162.07,162.07,0,0,1-24-6.48s-12,34.21-20.5,62.46l-.25,0c-19.95,3.71-33.17,6.46-39.77,10.48a6.12,6.12,0,0,0-8.64,1.48c-3.51.83-18.28,5.62-7.21,25.73,12.48,22.71,19.29,16.58,28.6,13.85s13.17,1.36,14.53,3c0,0-2.49-7.94-15.89-4.76,0,0,10.22-3.64,13.4-5.45,2.9-1.66,9.21.85,11,2.51-1.86-2.08-10.34-10.65-19.15-4.78-.68.45-6.13-1.59-8.4-2,0,0,11.81-2.49,16.12-3s3.18-5.67,2.73-8.4a10.64,10.64,0,0,1-9.54,7.95c-7.95.68-7.49-1.14-8.63-2.27s-4.08-1.36-7-2.27-6.36-3-5.23-5.22c1-2,5.2-4.2,4.27-7.2a6.08,6.08,0,0,0,.32-7.94,39,39,0,0,1,8.13-3.48c6.38-2,21.05-5.83,30.53-7.77-5,16.75-8.73,31.32-7.88,35.29l24.3,15.56c3.57,2.27,40.51,13,40.51,13l4.87-25.28s17.17-3.24,21.06-7.45,19.77-33.38,22-39.86l2.27-6.49Z" transform="translate(-18.19 -161.29)"/><path class="cls-1" d="M990.66,216.3v-3.79l23.46-25-59.58,43.71c-2.54-5.61-4.92-14.09-6.65-22.14-1.32-6.17,2.74-11.17,6.36-14.29a4.66,4.66,0,0,0,7.78-.63c2.1-1.09,2.1-6.57,3.18-8.06s2.57-3.21,5.25-7.06,8.67-7.93,8.67-7.93c-2.67-.21-8.35,4.18-8.13,3.75s3.31-3.53,5-4.18,2.57-1.28,2.46-2.89a21.21,21.21,0,0,0-.75-3.74,28.85,28.85,0,0,1-2.78,1.6c.32-.32,1.71-1.93,1.71-1.93l-2.46-1.82-.32.86s-2.26,2.92-3.69,4.88c.73-1.35,1.6-3.11,2-3.92a5.12,5.12,0,0,0,.54-2.46s-2.46,4.39-4,6.53-3.64,2.25-6.75,5.68-1.61,5.57-1.18,8.67c.3,2.13-1.11,4.09-2,5.12a4.82,4.82,0,0,0-.86-.09,4.71,4.71,0,0,0-4.71,4.72,4.86,4.86,0,0,0,.14,1.09c-1.84.79-3.84,2.42-5.84,6.26-5.54,11.34,2.07,25.51,6.57,32.31l-9.6,7L895.29,284l32.17-17.79c2.65,13.25,22.7,40.87,22.7,40.87l6.44-6.05s0-12.49.38-13.63,5.3,8.71,5.3,8.71,7.19-7.19,9.08-10.6,43.52-45.79,43.52-45.79Z" transform="translate(-18.19 -161.29)"/><path class="cls-1" d="M1562.64,376.87l-13.47,11.82s7.64-15.27,8.74-17c-2.11.63-30.1-7.83-40.27-3.38a103.34,103.34,0,0,0-19.37,11.49s-38.1-20.36-39.74-18.72c-.51.51,2,24.21,4.51,46.31-7.77-6.93-13.47-15.61-12.56-26,1-11.07.74-17.3,0-20.89a5.72,5.72,0,0,0,.47-8.14c.33-3.25-1.11-8-2.09-15.37-1.13-8.59,4.7-20.42,4.7-20.42-4.21,1.78-7.45,21.72-7.94,19.29s1.14-9.08,2.43-12.64,2.76-9.73,2.11-9.89-6.16.33-6.16.33v4l-1.78-4.22s-3.4-.65-2,1,.33,7.45.33,7.45c0-4.7-4.22-10.53-2.6-7.29a3.63,3.63,0,0,1,.24.56c1.35,3.79,1,13.94-1,24.23-1.65,8.5,2.16,13.61,3.89,15.43a5.92,5.92,0,0,0-.16,1.34,5.75,5.75,0,0,0,5.75,5.75,5.66,5.66,0,0,0,2.92-.8,9.71,9.71,0,0,1-.08,4c-1.46,6.32-3.24,31.12,3.89,35.82,2,1.29,5.48,4.15,9.78,7.54,2.14,19,4.21,36.58,4.21,36.58S1536,481.63,1543.92,483l-2.63-42.7s3.61-4.92,4.6-5.91S1563,402.16,1564,400.51,1562.64,376.87,1562.64,376.87Z" transform="translate(-18.19 -161.29)"/><path class="cls-1" d="M1557.91,371.71a.18.18,0,0,0,.13-.1C1558.07,371.5,1558,371.54,1557.91,371.71Z" transform="translate(-18.19 -161.29)"/><path class="cls-1" d="M1650.94,1118.52c-4.53-9.73-10-41.49-10.69-54.77s-2.92-57-5.83-65.79-6.81-23.34-6.81-23.34l2.92-10s24.63,9.72,26.9,10.37,5.51,3.24,5.51,3.24l.64,3.56s9.08,1.3,10.7,1.3,2.59,1.62,3.56,1.3,14.26-2,14.26-2v-4.21s4.22.65,4.54-2.92-3.24-17.18-4.54-20.42-17.17-39.21-21.06-55.74-27.87-96.9-29.82-107.27-1.94-11.67-1.94-11.67-6.48-16.85-10-21.39-18.47-20.09-18.47-20.09,1.62-18.48-.65-25.61-5.51-16.2-5.51-17.17,3.24-7.46,2.92-8.75-4.86-9.08-6.81-12.32a27.89,27.89,0,0,0-7.78-8.42c-2.59-1.62-6.15-6.16-7.78-8.43s-9.07-4.86-11.34-5.83-1-7.78-3.89-8.43-14.91-.65-15.88-1-6.8-7.46-14.91-3.57-5.51-1.62-10,2.6-16.53,11-17.83,13-8.75,5.83-11.34,11.34-4.21,17.18-4.21,21.39.32,12.64.32,15.88.33,4.86,2.59,7.78-2.59,7.13,0,8.43,5.84,3.89,7.13,6.15.65,5.51,3.57,5.84,7.45,4.53,9.4,5.51,6.15,5.18,6.8,7.13,2.92,7.13,2.92,7.13l-5.19,2.27a9.45,9.45,0,0,0-5.83-3.57c-4.21-1-7.78-1.94-10.05-3.89s-3.24-2.92-6.15-3.89a9.21,9.21,0,0,1-4.54-3.89l-1-5.18s-3.89,2.91-6.16,1.29-2.59-3.56-3.89-4.53-2.27-3.57-5.18-4.22a4.69,4.69,0,0,0-4.54,1.3l-3.89-1.3-4.21-2.59s-2.92-4.54-2.92-5.51-1.3-9.4-2.92-10-4.54-2-4.54-4.54-1-9.4-1.94-10.37-1.62-3.24-2.92-5.19-4.21-7.45-6.15-10.37-8.11-8.75-8.11-8.75l-1.94-2.59s-7.13-23.66-9.4-37.27-3.24-33.71-3.24-35.33,2.59,0,2.27-2.59-2-2.92-1.3-5.19,2.27-7.13,3.89-8.75,5.19-8.42,6.48-10.37,3.24-13.93,5.19-16.53,5.51-4.53,5.51-5.5-3.24-3.25-6.48-1-8.11,8.11-8.11,8.11-3.24-22.69-8.1-22.69-1.62,7.78-.32,11,1.29,10.37,1.29,10.37l-.32,1.94-2-1.94s-1.61-9.72-4.21-9.72-5.51,1-6.16,3.89c0,0-4.86-.65-5.83,2.59l-1,3.24s-3.57,0-4.86,1.94-2.27,6.81-1.62,8.11.32,9.07.65,12.31,1,9.4,1,9.4l1.62,3.24s-3.24.65-2.27,3.24,2.92,2,2.92,2,1.29,6.15,1,9.39-2.92,32.74-2.27,38.57.32,26.58,1.62,31.11c0,0-21.07,20.42-20.42,24s2.92,14.9,5.19,20.09,5.83,64.82,8.42,75.83,10.7,35,14.26,43.43,14.91,51.21,22.69,56.39,12.32,5.84,13.94,5.19,6.8,5.83,6.8,5.83-2.27,47.32-3.56,56.39-7.13,78.76-7.78,85.89-4.21,56.71-4.21,61.9c0,2.65.51,10.23,1,17.74h213.51A26.71,26.71,0,0,0,1650.94,1118.52Z" transform="translate(-18.19 -161.29)"/></svg>