<svg id="Layer_1" data-name="Layer 1" xmlns="http://www.w3.org/2000/svg" viewBox="0 0 1392.52 746.61"><defs><style>.cls-1{fill:#d80d13;}.cls-2{fill:#011339;}.cls-3{fill:#fff;}</style></defs><path class="cls-1" d="M1665.64,735.79v3.94c0,22.13-.07,44.25,0,66.37.1,25.31-9.71,46.32-28.56,62.67A76.81,76.81,0,0,1,1585.6,888H358.27c-32.41,0-63.32-21.6-74.6-52a84.19,84.19,0,0,1-5.34-30c.11-22,0-44,0-66v-4.19ZM981.82,798.85l.64.2v45.66h15.18V778.56c-6.8,0-13.29-.11-19.77.13-1,0-2.37,1.57-2.71,2.68-3.24,10.48-6.26,21-9.39,31.54-.74,2.5-1.62,5-2.71,8.28-.73-1.91-1.15-2.8-1.43-3.74-3.58-12-7.1-23.91-10.78-35.82-.36-1.17-1.64-2.89-2.54-2.92-6.58-.25-13.18-.14-19.93-.14v66.12h15.26V799c4.16,12.66,7.73,25.37,11.39,38,2.36,8.15,2.42,8,10.89,7.92,2.15,0,3.07-.69,3.61-2.73,1.73-6.5,3.64-13,5.48-19.44Zm28-20.26v66h15.44V798.8c4.13,12.64,7.77,25.31,11.3,38,2.29,8.24,2.22,8.17,10.79,8.09,2.26,0,3.27-.7,3.87-2.94,2.5-9.26,5.19-18.48,7.82-27.71,1.48-5.18,3-10.35,4.51-15.53l.49.17v45.72h15.18V778.55c-6.34,0-12.43.12-18.52-.06-2.51-.08-3.41.93-4,3.19-2.64,9.36-5.46,18.66-8.25,28-1.11,3.69-2.3,7.36-3.75,12-.49-1.58-.64-2-.78-2.51-3.8-12.52-7.57-25-11.46-37.55-.35-1.11-1.43-2.83-2.22-2.86C1023.47,778.5,1016.75,778.59,1009.8,778.59Zm160,28.52.7-.24c.55.8,1.12,1.59,1.64,2.41,5.58,8.87,11.74,17.45,16.53,26.73,3.81,7.38,8.72,10.14,16.77,9.1,3.14-.4,4.22-.87,4.19-4.22-.15-19.5-.06-39-.07-58.5,0-1.2-.14-2.4-.21-3.58h-15.94v40.31c-1.45-2.26-2.48-3.82-3.45-5.4-6.67-10.84-13.3-21.71-20-32.51-.65-1.06-1.81-2.47-2.8-2.53-4.44-.28-8.91-.12-13.49-.12v66.13h16.15Zm365.63-28.55v66.11h16v-39c1.11,1.62,1.83,2.57,2.46,3.58,6.89,11,13.74,22,20.71,32.95.72,1.13,2,2.54,3.17,2.62,4.32.31,8.67.13,13.24.13v-66.1h-15.85V819c-1.08-1.6-1.79-2.56-2.41-3.58-7.07-11.47-14.1-23-21.25-34.4a5.19,5.19,0,0,0-3.26-2.35C1544.12,778.38,1540,778.56,1535.38,778.56ZM884.07,846.21c19.74,0,35.15-14.85,35.24-34.08.11-19.54-15.14-34.67-35-34.72-20.17,0-35.09,14.77-35.1,34.88C849.19,831.41,864.36,846.17,884.07,846.21Zm607.48,0c19.7,0,34.93-14.92,35-34.3,0-17.61-13.37-34.85-36.68-34.51-18.72.28-33.47,15.75-33.38,35.54C1456.54,831.56,1472,846.21,1491.55,846.18ZM590.63,778.81v40.84c-8.07-13.13-15.67-25.55-23.36-37.93-.73-1.19-1.87-2.89-2.93-3-4.42-.33-8.88-.14-13.49-.14v65.91h16.07V805.44c1.12,1.67,1.75,2.55,2.32,3.46,6.89,11,13.74,22,20.67,32.94.69,1.09,1.77,2.66,2.74,2.72,4.54.29,9.11.13,13.61.13V778.81Zm252.9,25.26c-2.57-16.5-19.44-28.35-37.18-26.61-18.86,1.86-32,17.25-31.06,36.5.84,18.06,15.76,32,34.37,32.26,16.68.18,32.71-12.24,33.59-26.38-4.75,0-9.48.13-14.2-.05-2.26-.08-3.47.78-4.87,2.52-2.12,2.66-4.5,5.6-7.45,7-11.09,5.4-23.3-2.88-24.21-16-.61-9,4.34-17.21,11.77-19.77A16.72,16.72,0,0,1,825,802.47a3.39,3.39,0,0,0,2.55,1.53C832.79,804.14,838,804.07,843.53,804.07Zm-159.67,0c-.63-14.44-17.13-26.93-34.82-26.67a34.42,34.42,0,0,0,0,68.8c17.22.57,33.86-11.91,34.68-26.36-4.6,0-9.19.12-13.77,0-2.45-.09-4.06.46-5.39,2.79a17.84,17.84,0,0,1-5,5.46c-10,7.24-23.07,1.23-26.21-12-2.06-8.67,2.69-19.06,10.16-22.08,9.5-3.85,18.22.64,21.83,8.27A3.42,3.42,0,0,0,667.8,804C673.14,804.14,678.5,804.07,683.86,804.07Zm631.58,0c-1-15.14-18.13-27.62-36.07-26.62a34.14,34.14,0,0,0-32,36.76c1.18,17.31,15.77,34,39.12,31.93,13.71-1.19,29.36-15.15,28.55-26.27-4.84,0-9.71-.14-14.55.1-1.3.07-2.71,1.16-3.77,2.11-2.65,2.37-4.73,5.72-7.75,7.27-10.09,5.14-21.14-1.2-23.91-13.24-2.08-9,2.52-19,10.45-22.23,7.46-3,16.75-.86,21.47,8.39.39.75,1.35,1.7,2.06,1.72C1304.5,804.11,1310,804.05,1315.44,804.05Zm-224.13-25.28a14.21,14.21,0,0,0-.31,2c0,13.74-.21,27.48.25,41.2a29.5,29.5,0,0,0,3.46,13.12c5.48,9.68,14.92,11.56,25.21,11,11.53-.65,21-9,21.54-20.44.68-15.2.37-30.44.46-45.67a4.4,4.4,0,0,0-.43-1.2H1125v3.91c0,11.73,0,23.47,0,35.21a35.39,35.39,0,0,1-.67,7.05c-.82,4-3.2,5.89-7,6.06-4.15.18-6.83-1.36-8-5.25a26.31,26.31,0,0,1-.94-7.36c-.1-11.86,0-23.72,0-35.59v-4Zm-650.06,0c0,15.46-.38,30.45.12,45.41.38,11.35,7,18.85,18.19,21.27,18.92,4.1,33.07-6.74,32.56-25-.35-12.73-.07-25.48-.07-38.22v-3.49H475v5c0,10.87,0,21.73,0,32.6a64.84,64.84,0,0,1-.34,7.11c-.55,4.95-2.9,7.34-7.19,7.54-4.79.24-7.67-2-8.57-7a33,33,0,0,1-.5-6c-.05-11.74,0-23.48,0-35.22,0-1.33-.12-2.66-.19-4.11Zm874.2,66.11c4.08,0,7.52,0,11,0,7.42,0,7.34-.07,10.13-6.87a4.3,4.3,0,0,1,2.94-2.4c6.11-.23,12.23-.21,18.34,0a4.12,4.12,0,0,1,2.79,2c.87,1.61,1.15,3.55,1.89,5.25.34.79,1.18,1.92,1.82,1.93,5.65.15,11.31.09,17.34.09-.4-1.29-.55-1.89-.77-2.44q-10.79-27.09-21.6-54.15c-4-10-4-10-14.64-9.7-.25,0-.57-.1-.74,0-.92.62-2.29,1.1-2.65,2C1332.71,801.67,1324.26,822.83,1315.45,844.85Zm-775.78-26V803.79H520.14V793.38h20.17V778.8H504v65.63h36.48V829.86h-20.3v-11Zm147.87-40.26c.75,1.81,1.17,3,1.69,4.07,5.54,11.85,11.14,23.67,16.58,35.56a16,16,0,0,1,1.34,6.07c.16,6.7.06,13.42.06,20.23h17.23c0-7.15-.09-14,.06-20.84a15,15,0,0,1,1.25-5.71c5.36-11.79,10.87-23.51,16.3-35.27.54-1.18.89-2.46,1.49-4.14-5.3,0-10,.17-14.75-.07-2.64-.13-3.64.91-4.47,3.26-2.61,7.41-5.5,14.73-8.55,22.79-.78-1.85-1.3-3-1.73-4.11-2.34-6.3-4.56-12.65-7.07-18.88-.49-1.21-2-2.76-3.16-2.83C698.6,778.41,693.37,778.58,687.54,778.58Zm-334.47.2v65.7h16.14V819.61h19V804.7H369.3V793.53h19.62V778.78Zm1058,65.79v-51h12.74V778.81h-42.73V793.6h13.11v51Zm-976.21-15H415.32V778.88H398.61v65.83h36.25Zm1012.49,15.15v-66h-16.54v66ZM1238,844.65V778.84h-16.68v65.81Z" transform="translate(-273.14 -141.42)"/><path class="cls-1" d="M278.52,716.72V680.58H1665.36v36.14Z" transform="translate(-273.14 -141.42)"/><path class="cls-2" d="M954.71,496.29c-1.3.06-2.38.17-3.47.17q-32.06,0-64.12,0c-2,0-3.31-.34-4.53-2.28-13.71-21.83-33.7-32.14-59.2-29.56-27.25,2.76-47.33,17.07-56.57,43.11-9.42,26.56-7.5,53,9.63,76.3,14.87,20.23,36,28.07,60.81,26.1,15.56-1.24,29.43-6.53,40.2-18.37a48.91,48.91,0,0,0,11.37-21.15H815.24V520.18c1.23-.07,2.42-.2,3.61-.2l139.47,0c2.14,0,3.82-.12,3.94,2.94.94,25.21-2.29,49.65-13.92,72.36-19.43,37.93-50.81,60.31-92.22,68.3-36.38,7-70.72.72-101.49-20.4-31.39-21.55-49.8-51.63-54.92-89.43-4.3-31.75,1.88-61.43,19.92-88.14,19.46-28.81,46.84-46.41,80.55-53.61,42.51-9.07,81.35-.34,115.5,26.93,18.26,14.57,31.55,32.86,38.58,55.38C954.44,494.85,954.53,495.46,954.71,496.29Z" transform="translate(-273.14 -141.42)"/><path class="cls-2" d="M455.25,413.48c1.36-.06,2.58-.17,3.8-.17,15.74,0,31.49.06,47.24-.07,2.6,0,3.94.88,5.25,3q45.51,74.21,91.16,148.33a9.94,9.94,0,0,0,3.32,3.61q-1.32-77.26-2.65-154.72h60.4V660.78c-1.4.08-2.62.22-3.83.22-15.75,0-31.49-.08-47.24.09-3,0-4.44-1.08-5.9-3.42q-44.55-71.29-89.23-142.51a11.5,11.5,0,0,0-3.55-3.89c.53,49.69,1.06,99.38,1.59,149.4H455.25Z" transform="translate(-273.14 -141.42)"/><path class="cls-2" d="M1665.41,660.82h-62.94v-5.1c0-29.87-.06-59.74.07-89.61,0-3.31-.86-4.2-4.18-4.18-24.24.14-48.49.07-72.73.08-1.23,0-2.45.11-4.08.19v98.55h-63.2V413.61h63.07v92.47h80.93V413.61h63.06Z" transform="translate(-273.14 -141.42)"/><path class="cls-2" d="M654.91,337.73a2.1,2.1,0,0,0,.22.5c7.27,8,7.45,18.13,8.55,28,.39,3.48.59,7,1.31,10.4.83,4-.64,6.76-4.08,8.24A40.72,40.72,0,0,1,650.65,388a42.9,42.9,0,0,1-25.21-3.6c-2.81-1.37-4.32-3.24-3.73-6.8,1.54-9.23,2.65-18.54,4.09-27.79a11.09,11.09,0,0,1,1.93-4.33c1.83-2.66,3.89-5.17,5.85-7.74-1.4-2.19-3.07-4.12-4-6.37-2.47-6-1.62-11.7,2.37-16.92a7.27,7.27,0,0,0,1.76-3.86c.1-16.87.06-33.75,0-50.62a9.84,9.84,0,0,0-.33-1.54c-6,1.51-12.19,2.59-18,4.6-6,2.09-10,1.35-14.68-3.74-7.69-8.4-18.6-11.88-29.36-14.87-22.52-6.27-45.63-8.26-68.89-9.11-27.53-1-54.94.11-82.14,4.66-15.18,2.55-30.16,6-43.34,14.48a51.12,51.12,0,0,0-9.74,8.63,4.17,4.17,0,0,1-4.8,1.4q-36.09-9.08-72.2-18.07c-4.59-1.14-9.16-2.4-13.79-3.41-2.05-.45-2.85-1.28-2.85-3.49,0-6.24-.11-12.49-.48-18.72-.17-2.84,1.63-3.25,3.51-3.94l92.79-33.74q56.26-20.46,112.51-41a10.55,10.55,0,0,1,7.87,0Q592.35,179.6,695,216.79c2.45.89,3.59,1.86,3.43,4.69-.33,6-.3,12-.28,18,0,2.08-.63,3-2.79,3.57-12.12,2.88-24.19,6-36.32,8.89-3,.71-4.13,1.91-4.11,5.19.14,17.24-.09,34.49,0,51.73a9.86,9.86,0,0,0,2,5.61C662.41,321.45,661.93,328.92,654.91,337.73Z" transform="translate(-273.14 -141.42)"/><path class="cls-2" d="M1251.85,579.16h63c.46,3.72.71,7.43,1.4,11.06,2.67,14.13,13,23,26.07,22.58,15.39-.56,26.59-16.67,21.69-31.25-2-5.81-6.25-9.71-11.46-12.32-9.92-5-20-9.72-30.15-14.07-13.66-5.84-27.36-11.42-39.4-20.44-32.38-24.24-33-63.85-16.89-88.43,10.72-16.39,26.13-26.62,44.48-32.43,29.14-9.24,57.33-7.09,83.45,9.39,22.44,14.16,31.6,35.71,31.78,62-1.2.1-2.28.28-3.35.28-18.49,0-37-.05-55.49.06-2.78,0-4.2-.71-4.28-3.62a16.66,16.66,0,0,0-.74-3.65c-2.14-8.18-6.52-14.44-15.28-16.15-9.47-1.85-18,.2-24.23,8.05-5.8,7.24-4.85,20,2.65,25.32,6.95,5,14.67,8.94,22.32,12.82,14.78,7.5,29.91,14.32,44.59,22A74.82,74.82,0,0,1,1415.44,550c10.4,12.87,13.3,27.94,12.49,44-1,19.52-7.19,36.89-21.7,50.61-10.85,10.27-24,16-38.52,18.72-23.75,4.41-47.32,3.93-70-5.29-25.67-10.46-40-30.22-44.33-57.26C1252.29,593.77,1252.35,586.62,1251.85,579.16Z" transform="translate(-273.14 -141.42)"/><path class="cls-2" d="M339.16,468.75V507.5h74.13v55.35H339.23v42.62h4c22.75,0,45.49.08,68.24-.08,3.52,0,4.37,1,4.33,4.42-.17,15.37-.07,30.74-.07,46.12v4.76H278.57V413.58H415.43v55.17Z" transform="translate(-273.14 -141.42)"/><path class="cls-2" d="M1059.9,605.43H1133v55.35H997.08V413.6h62.82Z" transform="translate(-273.14 -141.42)"/><path class="cls-2" d="M593.25,333.67H378c0-4.72.06-9.3,0-13.88-.21-15.11-.55-30.23-.59-45.34a8.35,8.35,0,0,1,2.48-5.4c6.25-5.93,14.26-8.56,22.28-11,17.21-5.15,35-7.1,52.79-8.26a456.48,456.48,0,0,1,71.51.76c16.79,1.55,33.5,3.75,49.47,9.63,2.1.78,4.16,1.67,6.24,2.52,8.29,3.4,13,8.3,12.3,18.57-1.19,16.67-.72,33.46-1,50.2C593.52,332.13,593.37,332.74,593.25,333.67Z" transform="translate(-273.14 -141.42)"/><path class="cls-2" d="M1221.37,413.59V660.66h-63.08V413.59Z" transform="translate(-273.14 -141.42)"/><path class="cls-3" d="M981.82,798.85,975,822.78c-1.84,6.48-3.75,12.94-5.48,19.44-.54,2-1.46,2.7-3.61,2.73-8.47.12-8.53.23-10.89-7.92-3.66-12.68-7.23-25.39-11.39-38v45.71H928.38V778.57c6.75,0,13.35-.11,19.93.14.9,0,2.18,1.75,2.54,2.92,3.68,11.91,7.2,23.87,10.78,35.82.28.94.7,1.83,1.43,3.74,1.09-3.32,2-5.78,2.71-8.28,3.13-10.51,6.15-21.06,9.39-31.54.34-1.11,1.75-2.65,2.71-2.68,6.48-.24,13-.13,19.77-.13v66.15H982.46V799.05Z" transform="translate(-273.14 -141.42)"/><path class="cls-3" d="M1009.8,778.59c7,0,13.67-.09,20.37.13.79,0,1.87,1.75,2.22,2.86,3.89,12.5,7.66,25,11.46,37.55.14.47.29.93.78,2.51,1.45-4.63,2.64-8.3,3.75-12,2.79-9.31,5.61-18.61,8.25-28,.64-2.26,1.54-3.27,4-3.19,6.09.18,12.18.06,18.52.06v66.06H1064V798.89l-.49-.17c-1.51,5.18-3,10.35-4.51,15.53-2.63,9.23-5.32,18.45-7.82,27.71-.6,2.24-1.61,2.92-3.87,2.94-8.57.08-8.5.15-10.79-8.09-3.53-12.7-7.17-25.37-11.3-38v45.82H1009.8Z" transform="translate(-273.14 -141.42)"/><path class="cls-3" d="M1169.75,807.11v37.58H1153.6V778.56c4.58,0,9.05-.16,13.49.12,1,.06,2.15,1.47,2.8,2.53,6.72,10.8,13.35,21.67,20,32.51,1,1.58,2,3.14,3.45,5.4V778.81h15.94c.07,1.18.21,2.38.21,3.58,0,19.5-.08,39,.07,58.5,0,3.35-1,3.82-4.19,4.22-8.05,1-13-1.72-16.77-9.1-4.79-9.28-10.95-17.86-16.53-26.73-.52-.82-1.09-1.61-1.64-2.41Z" transform="translate(-273.14 -141.42)"/><path class="cls-3" d="M1535.38,778.56c4.61,0,8.74-.18,12.84.11a5.19,5.19,0,0,1,3.26,2.35c7.15,11.43,14.18,22.93,21.25,34.4.62,1,1.33,2,2.41,3.58V778.82H1591v66.1c-4.57,0-8.92.18-13.24-.13-1.13-.08-2.45-1.49-3.17-2.62-7-10.95-13.82-22-20.71-32.95-.63-1-1.35-2-2.46-3.58v39h-16Z" transform="translate(-273.14 -141.42)"/><path class="cls-3" d="M884.07,846.21c-19.71,0-34.88-14.8-34.86-33.92,0-20.11,14.93-34.93,35.1-34.88,19.86.05,35.11,15.18,35,34.72C919.22,831.36,903.81,846.25,884.07,846.21Zm.16-15.19c10,0,17.73-8.41,17.71-19.27s-7.86-19.18-17.9-19.1-17.59,8.44-17.51,19.42C866.6,822.6,874.47,831,884.23,831Z" transform="translate(-273.14 -141.42)"/><path class="cls-3" d="M1491.55,846.18c-19.56,0-35-14.62-35.09-33.27-.09-19.79,14.66-35.26,33.38-35.54,23.31-.34,36.72,16.9,36.68,34.51C1526.48,831.26,1511.25,846.15,1491.55,846.18Zm-.26-15.16c9.88.17,17.66-7.92,17.9-18.61s-7.44-19.66-17.12-19.81c-10.37-.15-18.18,7.91-18.4,19C1473.46,822.2,1481.3,830.84,1491.29,831Z" transform="translate(-273.14 -141.42)"/><path class="cls-3" d="M590.63,778.81h15.63v65.88c-4.5,0-9.07.16-13.61-.13-1-.06-2-1.63-2.74-2.72-6.93-11-13.78-22-20.67-32.94-.57-.91-1.2-1.79-2.32-3.46v39.08H550.85V778.61c4.61,0,9.07-.19,13.49.14,1.06.08,2.2,1.78,2.93,3,7.69,12.38,15.29,24.8,23.36,37.93Z" transform="translate(-273.14 -141.42)"/><path class="cls-3" d="M843.53,804.07c-5.5,0-10.74.07-16-.07a3.39,3.39,0,0,1-2.55-1.53,16.72,16.72,0,0,0-20.72-8.92c-7.43,2.56-12.38,10.81-11.77,19.77.91,13.15,13.12,21.43,24.21,16,2.95-1.44,5.33-4.38,7.45-7,1.4-1.74,2.61-2.6,4.87-2.52,4.72.18,9.45.05,14.2.05-.88,14.14-16.91,26.56-33.59,26.38C791.05,846,776.13,832,775.29,814c-.91-19.25,12.2-34.64,31.06-36.5C824.09,775.72,841,787.57,843.53,804.07Z" transform="translate(-273.14 -141.42)"/><path class="cls-3" d="M683.86,804.07c-5.36,0-10.72.07-16.06-.08a3.42,3.42,0,0,1-2.39-1.72c-3.61-7.63-12.33-12.12-21.83-8.27-7.47,3-12.22,13.41-10.16,22.08,3.14,13.2,16.16,19.21,26.21,12a17.84,17.84,0,0,0,5-5.46c1.33-2.33,2.94-2.88,5.39-2.79,4.58.16,9.17,0,13.77,0-.82,14.45-17.46,26.93-34.68,26.36a34.42,34.42,0,0,1,0-68.8C666.73,777.14,683.23,789.63,683.86,804.07Z" transform="translate(-273.14 -141.42)"/><path class="cls-3" d="M1315.44,804.05c-5.48,0-10.94.06-16.4-.08-.71,0-1.67-1-2.06-1.72-4.72-9.25-14-11.42-21.47-8.39-7.93,3.22-12.53,13.19-10.45,22.23,2.77,12,13.82,18.38,23.91,13.24,3-1.55,5.1-4.9,7.75-7.27,1.06-.95,2.47-2,3.77-2.11,4.84-.24,9.71-.1,14.55-.1.81,11.12-14.84,25.08-28.55,26.27-23.35,2-37.94-14.62-39.12-31.93a34.14,34.14,0,0,1,32-36.76C1297.31,776.43,1314.47,788.91,1315.44,804.05Z" transform="translate(-273.14 -141.42)"/><path class="cls-3" d="M1091.31,778.77h17v4c0,11.87,0,23.73,0,35.59a26.31,26.31,0,0,0,.94,7.36c1.18,3.89,3.86,5.43,8,5.25,3.76-.17,6.14-2.1,7-6.06a35.39,35.39,0,0,0,.67-7.05c.07-11.74,0-23.48,0-35.21v-3.91h16.54a4.4,4.4,0,0,1,.43,1.2c-.09,15.23.22,30.47-.46,45.67-.52,11.46-10,19.79-21.54,20.44-10.29.58-19.73-1.3-25.21-11a29.5,29.5,0,0,1-3.46-13.12c-.46-13.72-.23-27.46-.25-41.2A14.21,14.21,0,0,1,1091.31,778.77Z" transform="translate(-273.14 -141.42)"/><path class="cls-3" d="M441.25,778.74h16.91c.07,1.45.18,2.78.19,4.11,0,11.74,0,23.48,0,35.22a33,33,0,0,0,.5,6c.9,4.93,3.78,7.2,8.57,7,4.29-.2,6.64-2.59,7.19-7.54a64.84,64.84,0,0,0,.34-7.11c0-10.87,0-21.73,0-32.6v-5h17.05v3.49c0,12.74-.28,25.49.07,38.22.51,18.22-13.64,29.06-32.56,25-11.15-2.42-17.81-9.92-18.19-21.27C440.87,809.19,441.25,794.2,441.25,778.74Z" transform="translate(-273.14 -141.42)"/><path class="cls-3" d="M1315.45,844.85c8.81-22,17.26-43.18,25.82-64.3.36-.87,1.73-1.35,2.65-2,.17-.12.49,0,.74,0,10.62-.31,10.64-.32,14.64,9.7q10.83,27.06,21.6,54.15c.22.55.37,1.15.77,2.44-6,0-11.69.06-17.34-.09-.64,0-1.48-1.14-1.82-1.93-.74-1.7-1-3.64-1.89-5.25a4.12,4.12,0,0,0-2.79-2c-6.11-.18-12.23-.2-18.34,0a4.3,4.3,0,0,0-2.94,2.4c-2.79,6.8-2.71,6.83-10.13,6.87C1323,844.86,1319.53,844.85,1315.45,844.85Zm40-23.13-6.24-20.87-.77,0c-2.05,6.84-4.11,13.69-6.26,20.85Z" transform="translate(-273.14 -141.42)"/><path class="cls-3" d="M539.67,818.84H520.15v11h20.3v14.57H504V778.8h36.34v14.58H520.14v10.41h19.53Z" transform="translate(-273.14 -141.42)"/><path class="cls-3" d="M687.54,778.58c5.83,0,11.06-.17,16.27.13,1.13.07,2.67,1.62,3.16,2.83,2.51,6.23,4.73,12.58,7.07,18.88.43,1.15,1,2.26,1.73,4.11,3.05-8.06,5.94-15.38,8.55-22.79.83-2.35,1.83-3.39,4.47-3.26,4.71.24,9.45.07,14.75.07-.6,1.68-.95,3-1.49,4.14-5.43,11.76-10.94,23.48-16.3,35.27a15,15,0,0,0-1.25,5.71c-.15,6.84-.06,13.69-.06,20.84H707.21c0-6.81.1-13.53-.06-20.23a16,16,0,0,0-1.34-6.07c-5.44-11.89-11-23.71-16.58-35.56C688.71,781.54,688.29,780.39,687.54,778.58Z" transform="translate(-273.14 -141.42)"/><path class="cls-3" d="M353.07,778.78h35.85v14.75H369.3V804.7h18.89v14.91h-19v24.87H353.07Z" transform="translate(-273.14 -141.42)"/><path class="cls-3" d="M1411.07,844.57h-16.88v-51h-13.11V778.81h42.73v14.75h-12.74Z" transform="translate(-273.14 -141.42)"/><path class="cls-3" d="M434.86,829.59v15.12H398.61V778.88h16.71v50.71Z" transform="translate(-273.14 -141.42)"/><path class="cls-3" d="M1447.35,844.74h-16.54v-66h16.54Z" transform="translate(-273.14 -141.42)"/><path class="cls-3" d="M1238,844.65h-16.68V778.84H1238Z" transform="translate(-273.14 -141.42)"/><path class="cls-1" d="M884.23,831c-9.76,0-17.63-8.42-17.7-18.95-.08-11,7.47-19.35,17.51-19.42s17.88,8.3,17.9,19.1S894.23,831,884.23,831Z" transform="translate(-273.14 -141.42)"/><path class="cls-1" d="M1491.29,831c-10-.18-17.83-8.82-17.62-19.42.22-11.09,8-19.15,18.4-19,9.68.15,17.36,9,17.12,19.81S1501.17,831.19,1491.29,831Z" transform="translate(-273.14 -141.42)"/><path class="cls-1" d="M1355.4,821.72h-13.27c2.15-7.16,4.21-14,6.26-20.85l.77,0Z" transform="translate(-273.14 -141.42)"/></svg>